<svg width="6" height="25" viewBox="0 0 6 25" fill="none" xmlns="http://www.w3.org/2000/svg">
<g id="Group 13">
<path id="Vector" d="M3.07153 5C4.45225 5 5.57153 3.88071 5.57153 2.5C5.57153 1.11929 4.45225 0 3.07153 0C1.69082 0 0.571533 1.11929 0.571533 2.5C0.571533 3.88071 1.69082 5 3.07153 5Z" fill="#23A6F0"/>
<path id="Vector_2" d="M3.07153 15C4.45225 15 5.57153 13.8807 5.57153 12.5C5.57153 11.1193 4.45225 10 3.07153 10C1.69082 10 0.571533 11.1193 0.571533 12.5C0.571533 13.8807 1.69082 15 3.07153 15Z" fill="#23A6F0"/>
<path id="Vector_3" d="M3.07153 25C4.45225 25 5.57153 23.8807 5.57153 22.5C5.57153 21.1193 4.45225 20 3.07153 20C1.69082 20 0.571533 21.1193 0.571533 22.5C0.571533 23.8807 1.69082 25 3.07153 25Z" fill="#23A6F0"/>
</g>
</svg>
