<svg width="24" height="24" viewBox="0 0 24 24" fill="none" xmlns="http://www.w3.org/2000/svg">
<path d="M14.1777 3.46524L15.8359 6.87394C16.0631 7.3418 16.6704 7.80678 17.1853 7.89231L20.2485 8.44151C22.21 8.78887 22.6457 10.2167 21.2252 11.6139L18.8058 13.9802C18.4018 14.3768 18.1618 15.1613 18.2867 15.7149L18.9354 18.684C19.4451 21.0281 18.1952 21.9231 16.1464 20.6775L13.2844 18.9371C12.7632 18.6191 11.909 18.6166 11.388 18.9157L8.48919 20.5835C6.41416 21.7755 5.18177 20.8546 5.74547 18.5248L6.46549 15.5765C6.59995 15.0254 6.38823 14.2355 5.9916 13.8315L3.61184 11.4077C2.22357 9.98264 2.69134 8.56585 4.65682 8.26023L7.72566 7.78524C8.2438 7.7008 8.86212 7.2623 9.09561 6.79541L10.832 3.41908C11.7798 1.60062 13.2826 1.62052 14.1777 3.46524Z" fill="black"/>
</svg>
