<svg width="16" height="17" viewBox="0 0 16 17" fill="none" xmlns="http://www.w3.org/2000/svg">
<path d="M14.1887 6.16509L10.2215 5.58853L8.4481 1.99322C8.39966 1.89478 8.31998 1.81509 8.22154 1.76666C7.97466 1.64478 7.67466 1.74634 7.55123 1.99322L5.77779 5.58853L1.8106 6.16509C1.70123 6.18072 1.60123 6.23228 1.52466 6.31041C1.4321 6.40554 1.3811 6.53353 1.38286 6.66625C1.38461 6.79897 1.43899 6.92557 1.53404 7.01822L4.40435 9.81666L3.72623 13.7682C3.71032 13.8601 3.7205 13.9547 3.75559 14.0411C3.79068 14.1276 3.84929 14.2024 3.92477 14.2572C4.00025 14.3121 4.08958 14.3446 4.18263 14.3513C4.27568 14.3579 4.36873 14.3383 4.45123 14.2948L7.99966 12.4292L11.5481 14.2948C11.645 14.3463 11.7575 14.3635 11.8653 14.3448C12.1372 14.2979 12.32 14.0401 12.2731 13.7682L11.595 9.81666L14.4653 7.01822C14.5434 6.94166 14.595 6.84166 14.6106 6.73228C14.6528 6.45884 14.4622 6.20572 14.1887 6.16509Z" fill="#FEA250"/>
</svg>
