<svg width="30" height="38" viewBox="0 0 30 38" fill="none" xmlns="http://www.w3.org/2000/svg">
<path d="M15 38C10.6562 36.8917 7.07 34.3659 4.24125 30.4228C1.4125 26.4797 -0.00124917 22.1021 8.2818e-07 17.29V5.7L15 0L30 5.7V17.29C30 22.1033 28.5856 26.4816 25.7569 30.4247C22.9281 34.3678 19.3425 36.8929 15 38ZM9.375 26.6H20.625V17.1H18.75V15.2C18.75 14.155 18.3825 13.2601 17.6475 12.5153C16.9125 11.7705 16.03 11.3987 15 11.4C13.9688 11.4 13.0856 11.7724 12.3506 12.5172C11.6156 13.262 11.2488 14.1563 11.25 15.2V17.1H9.375V26.6ZM13.125 17.1V15.2C13.125 14.6617 13.305 14.2101 13.665 13.8453C14.025 13.4805 14.47 13.2987 15 13.3C15.5312 13.3 15.9769 13.4824 16.3369 13.8472C16.6969 14.212 16.8762 14.6629 16.875 15.2V17.1H13.125Z" fill="#348BCA"/>
</svg>
